PS_ngait_og_ss11_kinetics.mot
version=1
nRows=32
nColumns=28
inDegrees=yes
endheader
time	1_ground_force_vx	1_ground_force_vy	1_ground_force_vz	1_ground_force_px	1_ground_force_py	1_ground_force_pz	2_ground_force_vx	2_ground_force_vy	2_ground_force_vz	2_ground_force_px	2_ground_force_py	2_ground_force_pz	3_ground_force_vx	3_ground_force_vy	3_ground_force_vz	3_ground_force_px	3_ground_force_py	3_ground_force_pz	1_ground_torque_x	1_ground_torque_y	1_ground_torque_z	2_ground_torque_x	2_ground_torque_y	2_ground_torque_z	3_ground_torque_x	3_ground_torque_y	3_ground_torque_z
  0.00000000	 14.16247631	 40.49396596	  8.80811932	  0.22735424	 -0.00600000	  0.10544743	103.67038540	848.07236688	-43.33467300	 -0.15317875	 -0.00600000	  0.25215408	  0.00000000	  0.00000000	  0.00000000	  0.90000000	 -0.00600000	  0.20000000	  0.00000000	  0.70452269	  0.00000000	  0.00000000	 -3.24154233	  0.00000000	  0.00000000	  0.00000000	  0.00000000
  0.00083333	 15.18981615	 43.64291063	  7.32574996	  0.22991470	 -0.00600000	  0.10872528	104.22510392	847.05159596	-43.11381302	 -0.15304301	 -0.00600000	  0.25203423	  0.00000000	  0.00000000	  0.00000000	  0.90000000	 -0.00600000	  0.20000000	  0.00000000	  0.71765396	  0.00000000	  0.00000000	 -3.16927327	  0.00000000	  0.00000000	  0.00000000	  0.00000000
  0.00166667	 16.27026321	 47.04212486	  5.78062523	  0.23228727	 -0.00600000	  0.11163594	104.79392174	845.97472277	-42.87253228	 -0.15290045	 -0.00600000	  0.25191372	  0.00000000	  0.00000000	  0.00000000	  0.90000000	 -0.00600000	  0.20000000	  0.00000000	  0.72646980	  0.00000000	  0.00000000	 -3.09539643	  0.00000000	  0.00000000	  0.00000000	  0.00000000
  0.00250000	 17.39852217	 50.69909261	  4.19680376	  0.23445388	 -0.00600000	  0.11420355	105.37211750	844.84655955	-42.61158111	 -0.15275173	 -0.00600000	  0.25179574	  0.00000000	  0.00000000	  0.00000000	  0.90000000	 -0.00600000	  0.20000000	  0.00000000	  0.73224323	  0.00000000	  0.00000000	 -3.02191940	  0.00000000	  0.00000000	  0.00000000	  0.00000000
  0.00333333	 18.56743414	 54.62055255	  2.59129225	  0.23641581	 -0.00600000	  0.11645968	105.95600320	843.67128730	-42.33094576	 -0.15259717	 -0.00600000	  0.25168349	  0.00000000	  0.00000000	  0.00000000	  0.90000000	 -0.00600000	  0.20000000	  0.00000000	  0.73648905	  0.00000000	  0.00000000	 -2.95069877	  0.00000000	  0.00000000	  0.00000000	  0.00000000
  0.00416667	 19.76610286	 58.80850200	  0.97133113	  0.23819530	 -0.00600000	  0.11843289	106.54228533	842.45264581	-42.03095402	 -0.15243686	 -0.00600000	  0.25157960	  0.00000000	  0.00000000	  0.00000000	  0.90000000	 -0.00600000	  0.20000000	  0.00000000	  0.74112518	  0.00000000	  0.00000000	 -2.88301753	  0.00000000	  0.00000000	  0.00000000	  0.00000000
  0.00500000	 20.98052007	 63.25921831	 -0.66491846	  0.23982925	 -0.00600000	  0.12016102	107.12728157	841.19252796	-41.71294464	 -0.15227053	 -0.00600000	  0.25148469	  0.00000000	  0.00000000	  0.00000000	  0.90000000	 -0.00600000	  0.20000000	  0.00000000	  0.74734488	  0.00000000	  0.00000000	 -2.81950195	  0.00000000	  0.00000000	  0.00000000	  0.00000000
  0.00583333	 22.19466121	 67.96291677	 -2.32362369	  0.24135591	 -0.00600000	  0.12169679	107.70719338	839.89147011	-41.37906051	 -0.15209786	 -0.00600000	  0.25139695	  0.00000000	  0.00000000	  0.00000000	  0.90000000	 -0.00600000	  0.20000000	  0.00000000	  0.75459933	  0.00000000	  0.00000000	 -2.76042385	  0.00000000	  0.00000000	  0.00000000	  0.00000000
  0.00666667	 23.39065731	 72.90280705	 -4.00996822	  0.24280416	 -0.00600000	  0.12309137	108.27994617	838.55103153	-41.03166196	 -0.15191894	 -0.00600000	  0.25131358	  0.00000000	  0.00000000	  0.00000000	  0.90000000	 -0.00600000	  0.20000000	  0.00000000	  0.76139996	  0.00000000	  0.00000000	 -2.70598915	  0.00000000	  0.00000000	  0.00000000	  0.00000000
  0.00750000	 24.55003390	 78.05458242	 -5.72495699	  0.24418901	 -0.00600000	  0.12437412	108.84723088	837.17555593	-40.67297932	 -0.15173471	 -0.00600000	  0.25123269	  0.00000000	  0.00000000	  0.00000000	  0.90000000	 -0.00600000	  0.20000000	  0.00000000	  0.76678686	  0.00000000	  0.00000000	 -2.65635067	  0.00000000	  0.00000000	  0.00000000	  0.00000000
  0.00833333	 25.65582320	 83.38664763	 -7.46395053	  0.24551280	 -0.00600000	  0.12554692	109.41412429	835.77168149	-40.30556032	 -0.15154667	 -0.00600000	  0.25115338	  0.00000000	  0.00000000	  0.00000000	  0.90000000	 -0.00600000	  0.20000000	  0.00000000	  0.77083683	  0.00000000	  0.00000000	 -2.61150943	  0.00000000	  0.00000000	  0.00000000	  0.00000000
  0.00916667	 26.69316817	 88.86179014	 -9.21705310	  0.24677610	 -0.00600000	  0.12659495	109.98590778	834.34408516	-39.93269147	 -0.15135591	 -0.00600000	  0.25107522	  0.00000000	  0.00000000	  0.00000000	  0.90000000	 -0.00600000	  0.20000000	  0.00000000	  0.77445960	  0.00000000	  0.00000000	 -2.57125067	  0.00000000	  0.00000000	  0.00000000	  0.00000000
  0.01000000	 27.64878566	 94.44177114	-10.97124404	  0.24799016	 -0.00600000	  0.12750800	110.56488710	832.89044777	-39.55797139	 -0.15116250	 -0.00600000	  0.25099819	  0.00000000	  0.00000000	  0.00000000	  0.90000000	 -0.00600000	  0.20000000	  0.00000000	  0.77877947	  0.00000000	  0.00000000	 -2.53517368	  0.00000000	  0.00000000	  0.00000000	  0.00000000
  0.01083333	 28.51083893	100.09232461	-12.71284326	  0.24917067	 -0.00600000	  0.12829225	111.14976471	831.40163592	-39.18477652	 -0.15096596	 -0.00600000	  0.25092297	  0.00000000	  0.00000000	  0.00000000	  0.90000000	 -0.00600000	  0.20000000	  0.00000000	  0.78446371	  0.00000000	  0.00000000	 -2.50280881	  0.00000000	  0.00000000	  0.00000000	  0.00000000
  0.01166667	 29.26845044	105.78330406	-14.42872354	  0.25031768	 -0.00600000	  0.12896105	111.73755804	829.86710775	-38.81604585	 -0.15076584	 -0.00600000	  0.25085047	  0.00000000	  0.00000000	  0.00000000	  0.90000000	 -0.00600000	  0.20000000	  0.00000000	  0.79200386	  0.00000000	  0.00000000	 -2.47369468	  0.00000000	  0.00000000	  0.00000000	  0.00000000
  0.01250000	 29.90951889	111.48421406	-16.10518713	  0.25140730	 -0.00600000	  0.12952378	112.32593905	828.27943588	-38.45424903	 -0.15056200	 -0.00600000	  0.25078105	  0.00000000	  0.00000000	  0.00000000	  0.90000000	 -0.00600000	  0.20000000	  0.00000000	  0.80256541	  0.00000000	  0.00000000	 -2.44743466	  0.00000000	  0.00000000	  0.00000000	  0.00000000
  0.01333333	 30.41913072	117.16061032	-17.72648997	  0.25240321	 -0.00600000	  0.12998998	112.91406231	826.63409785	-38.10159063	 -0.15035458	 -0.00600000	  0.25071442	  0.00000000	  0.00000000	  0.00000000	  0.90000000	 -0.00600000	  0.20000000	  0.00000000	  0.81794780	  0.00000000	  0.00000000	 -2.42375593	  0.00000000	  0.00000000	  0.00000000	  0.00000000
  0.01416667	 30.78142230	122.77485075	-19.27599950	  0.25327426	 -0.00600000	  0.13037819	113.50213818	824.92768516	-37.76006715	 -0.15014413	 -0.00600000	  0.25065028	  0.00000000	  0.00000000	  0.00000000	  0.90000000	 -0.00600000	  0.20000000	  0.00000000	  0.83970136	  0.00000000	  0.00000000	 -2.40241804	  0.00000000	  0.00000000	  0.00000000	  0.00000000
  0.01500000	 30.98300011	128.29068383	-20.73884805	  0.25400605	 -0.00600000	  0.13071150	114.09075500	823.15780021	-37.43105664	 -0.14993163	 -0.00600000	  0.25058880	  0.00000000	  0.00000000	  0.00000000	  0.90000000	 -0.00600000	  0.20000000	  0.00000000	  0.86858866	  0.00000000	  0.00000000	 -2.38302344	  0.00000000	  0.00000000	  0.00000000	  0.00000000
  0.01583333	 31.01527668	133.67991447	-22.10344297	  0.25460207	 -0.00600000	  0.13100569	114.68013828	821.32315189	-37.11474775	 -0.14971794	 -0.00600000	  0.25053047	  0.00000000	  0.00000000	  0.00000000	  0.90000000	 -0.00600000	  0.20000000	  0.00000000	  0.90479522	  0.00000000	  0.00000000	 -2.36492606	  0.00000000	  0.00000000	  0.00000000	  0.00000000
  0.01666667	 30.87519942	138.92725319	-23.36175474	  0.25507652	 -0.00600000	  0.13126761	115.26972134	819.42285693	-36.80990495	 -0.14950328	 -0.00600000	  0.25047571	  0.00000000	  0.00000000	  0.00000000	  0.90000000	 -0.00600000	  0.20000000	  0.00000000	  0.94830645	  0.00000000	  0.00000000	 -2.34729811	  0.00000000	  0.00000000	  0.00000000	  0.00000000
  0.01750000	 30.56489972	144.02843082	-24.50960884	  0.25544871	 -0.00600000	  0.13150308	115.85859015	817.45620296	-36.51403210	 -0.14928736	 -0.00600000	  0.25042449	  0.00000000	  0.00000000	  0.00000000	  0.90000000	 -0.00600000	  0.20000000	  0.00000000	  0.99890649	  0.00000000	  0.00000000	 -2.32931878	  0.00000000	  0.00000000	  0.00000000	  0.00000000
  0.01833333	 30.09158592	148.98400816	-25.54706948	  0.25574214	 -0.00600000	  0.13172246	116.44661597	815.42337697	-36.22356307	 -0.14907007	 -0.00600000	  0.25037620	  0.00000000	  0.00000000	  0.00000000	  0.90000000	 -0.00600000	  0.20000000	  0.00000000	  1.05602955	  0.00000000	  0.00000000	 -2.31034708	  0.00000000	  0.00000000	  0.00000000	  0.00000000
  0.01916667	 29.46723562	153.79615792	-26.47805306	  0.25598231	 -0.00600000	  0.13193941	117.03508869	813.32603456	-35.93414972	 -0.14885186	 -0.00600000	  0.25032964	  0.00000000	  0.00000000	  0.00000000	  0.90000000	 -0.00600000	  0.20000000	  0.00000000	  1.11901789	  0.00000000	  0.00000000	 -2.28993197	  0.00000000	  0.00000000	  0.00000000	  0.00000000
  0.02000000	 28.70681368	158.46929810	-27.30985943	  0.25619291	 -0.00600000	  0.13216682	117.62591255	811.16720835	-35.64118362	 -0.14863369	 -0.00600000	  0.25028285	  0.00000000	  0.00000000	  0.00000000	  0.90000000	 -0.00600000	  0.20000000	  0.00000000	  1.18773031	  0.00000000	  0.00000000	 -2.26776570	  0.00000000	  0.00000000	  0.00000000	  0.00000000
  0.02083333	 27.82604255	163.01181705	-28.05360955	  0.25639379	 -0.00600000	  0.13241291	118.22061171	808.95105050	-35.34050225	 -0.14841638	 -0.00600000	  0.25023364	  0.00000000	  0.00000000	  0.00000000	  0.90000000	 -0.00600000	  0.20000000	  0.00000000	  1.26287234	  0.00000000	  0.00000000	 -2.24392188	  0.00000000	  0.00000000	  0.00000000	  0.00000000
  0.02166667	 26.84030516	167.43799774	-28.72468926	  0.25660150	 -0.00600000	  0.13267680	118.82039180	806.68189947	-35.02923122	 -0.14820013	 -0.00600000	  0.25018087	  0.00000000	  0.00000000	  0.00000000	  0.90000000	 -0.00600000	  0.20000000	  0.00000000	  1.34569873	  0.00000000	  0.00000000	 -2.21921201	  0.00000000	  0.00000000	  0.00000000	  0.00000000
  0.02250000	 25.76469345	171.76810943	-29.34241186	  0.25683117	 -0.00600000	  0.13294761	119.42631427	804.36265905	-34.70596186	 -0.14798434	 -0.00600000	  0.25012536	  0.00000000	  0.00000000	  0.00000000	  0.90000000	 -0.00600000	  0.20000000	  0.00000000	  1.43740205	  0.00000000	  0.00000000	 -2.19495146	  0.00000000	  0.00000000	  0.00000000	  0.00000000
  0.02333333	 24.61396362	176.02586961	-29.92891186	  0.25709932	 -0.00600000	  0.13321067	120.03889168	801.99360363	-34.36983560	 -0.14776753	 -0.00600000	  0.25006911	  0.00000000	  0.00000000	  0.00000000	  0.90000000	 -0.00600000	  0.20000000	  0.00000000	  1.53875964	  0.00000000	  0.00000000	 -2.17210383	  0.00000000	  0.00000000	  0.00000000	  0.00000000
  0.02416667	 23.40172365	180.23571488	-30.50708369	  0.25742424	 -0.00600000	  0.13345516	120.65753855	799.57272756	-34.01966667	 -0.14754784	 -0.00600000	  0.25001334	  0.00000000	  0.00000000	  0.00000000	  0.90000000	 -0.00600000	  0.20000000	  0.00000000	  1.65014084	  0.00000000	  0.00000000	 -2.15063593	  0.00000000	  0.00000000	  0.00000000	  0.00000000
  0.02500000	 22.13980642	184.42168360	-31.09780843	  0.25782185	 -0.00600000	  0.13367776	121.28025242	797.09826257	-33.65385803	 -0.14732461	 -0.00600000	  0.24995735	  0.00000000	  0.00000000	  0.00000000	  0.90000000	 -0.00600000	  0.20000000	  0.00000000	  1.77147065	  0.00000000	  0.00000000	 -2.12963052	  0.00000000	  0.00000000	  0.00000000	  0.00000000
  0.02583333	 20.83784742	188.60758175	-31.71827435	  0.25830067	 -0.00600000	  0.13388133	121.90409018	794.57111456	-33.27067648	 -0.14709955	 -0.00600000	  0.24989910	  0.00000000	  0.00000000	  0.00000000	  0.90000000	 -0.00600000	  0.20000000	  0.00000000	  1.90218794	  0.00000000	  0.00000000	 -2.10787367	  0.00000000	  0.00000000	  0.00000000	  0.00000000
